<svg xmlns="http://www.w3.org/2000/svg" viewBox="0 0 100 100" data-figure="true" data-faceless="true">
  <!-- Hand-authored placeholder — REPLACE with a curated CC0 asset at this path. -->
  <path d="M47 84C40 80 33 74 27 67C19 57 15 46 17 35C18 28 22 24 27 25C31 26 32 31 31 37L30 43C29 47 31 50 34 51C37 52 39 50 39 47L39 27C39 21 42 17 46 18C50 19 51 23 50 29L49 52C49 57 46 61 42 64L36 69C40 74 44 78 49 81L47 84Z"/>
  <path d="M53 84C60 80 67 74 73 67C81 57 85 46 83 35C82 28 78 24 73 25C69 26 68 31 69 37L70 43C71 47 69 50 66 51C63 52 61 50 61 47L61 27C61 21 58 17 54 18C50 19 49 23 50 29L51 52C51 57 54 61 58 64L64 69C60 74 56 78 51 81L53 84Z"/>
  <path d="M15 67L35 75L30 96L8 87L15 67ZM85 67L65 75L70 96L92 87L85 67Z"/>
</svg>
